<?xml version="1.0" encoding="iso-8859-1"?>
<!-- Generator: Adobe Illustrator 19.0.0, SVG Export Plug-In . SVG Version: 6.00 Build 0)  -->
<svg version="1.1" id="Capa_1" xmlns="http://www.w3.org/2000/svg" xmlns:xlink="http://www.w3.org/1999/xlink" x="0px" y="0px"
	 viewBox="0 0 420.864 420.864" style="enable-background:new 0 0 420.864 420.864;" xml:space="preserve">
<g>
	<g>
		<path d="M340.992,149.504c-12.288-6.144-19.968-17.92-21.504-31.232c5.632-1.024,10.24-6.144,10.24-11.776V78.848
			c0-6.656-5.632-12.288-12.288-12.288h-52.736c-6.656-0.512-11.776,5.12-11.776,11.776v27.648c0,6.144,4.096,10.752,10.24,11.776
			c-1.536,13.312-9.728,25.088-21.504,31.232c-1.024,0.512-2.048,1.024-3.072,2.048v-29.696c0-9.216-3.584-17.92-10.24-24.064
			c-6.656-6.656-14.848-9.728-24.064-9.728l-33.28-0.512c-3.072,0-6.656-1.536-9.216-3.584c-2.56-2.56-3.584-5.632-3.584-9.216
			v-8.192h5.12c3.072,0,5.12-2.048,5.12-5.12V18.944c0-3.072-2.048-5.12-5.12-5.12h-5.12V5.12c0-3.072-2.048-5.12-5.12-5.12h-46.08
			c-3.072,0-5.12,2.048-5.12,5.12v8.704h-5.12c-3.072,0-5.12,2.048-5.12,5.12v41.984c0,3.072,2.048,5.12,5.12,5.12h5.12v8.704
			c0,7.168-5.632,12.8-12.8,12.8H56.32c-18.944,0-34.304,15.36-34.304,34.304v215.552c0,16.896,13.824,31.232,31.232,31.232h130.048
			v5.12c0,26.112,20.992,47.104,47.104,47.104h121.344c26.112,0,47.104-20.992,47.104-47.104V244.736
			C398.848,204.8,376.832,167.936,340.992,149.504z M263.168,78.336c0-1.024,1.024-2.048,2.048-2.048h52.736
			c1.024,0,2.048,1.024,2.048,2.048v27.648c0,1.024-1.024,2.048-2.048,2.048h-3.584h-46.08h-3.072c-1.024,0-2.048-1.024-2.048-2.048
			V78.336z M111.616,10.24h35.84v3.584h-35.84V10.24z M158.208,24.064v31.744h-5.12h-46.08h-5.12V24.064H158.208z M183.296,358.4
			H53.248c-11.776,0-20.992-9.728-20.992-20.992V121.344c0-13.312,10.752-24.064,24.064-24.064h32.768
			c12.8,0,23.04-10.24,23.04-23.04v-8.704h35.84v8.192c0,6.144,2.56,11.776,6.656,16.384c4.608,4.096,10.24,6.656,16.384,6.656
			h32.256c6.656,0,12.288,2.56,16.896,7.168c4.608,4.608,7.168,10.752,7.168,16.896v36.352
			c-27.648,19.968-44.032,52.224-44.032,87.04V358.4z M388.608,373.76c0,20.48-16.384,36.864-36.864,36.864H230.4
			c-20.48,0-36.864-16.384-36.864-36.864V244.736c0-36.352,19.968-69.632,52.224-86.528c15.36-8.192,25.6-23.04,27.136-39.936
			h36.352c1.536,16.896,11.776,32.256,27.136,39.936c32.256,16.896,52.224,50.176,52.224,86.528V373.76z"/>
	</g>
</g>
<g>
</g>
<g>
</g>
<g>
</g>
<g>
</g>
<g>
</g>
<g>
</g>
<g>
</g>
<g>
</g>
<g>
</g>
<g>
</g>
<g>
</g>
<g>
</g>
<g>
</g>
<g>
</g>
<g>
</g>
</svg>
