<?xml version="1.0" encoding="iso-8859-1"?>
<!-- Generator: Adobe Illustrator 17.1.0, SVG Export Plug-In . SVG Version: 6.00 Build 0)  -->
<!DOCTYPE svg PUBLIC "-//W3C//DTD SVG 1.1//EN" "http://www.w3.org/Graphics/SVG/1.1/DTD/svg11.dtd">
<svg version="1.1" id="Capa_1" xmlns="http://www.w3.org/2000/svg" xmlns:xlink="http://www.w3.org/1999/xlink" x="0px" y="0px"
	 viewBox="0 0 296.967 296.967" style="enable-background:new 0 0 296.967 296.967;" xml:space="preserve">
<g>
	<path d="M239.51,58.116c-10.973,0-21.126,3.102-30.126,8.467v-45.6c0-4.418-3.249-8-7.667-8h-193c-4.418,0-8.333,3.582-8.333,8
		v75.488v6.58v121.42v1.012c0,2.203,0.137,4.387,0.379,6.55c0.753,6.714,2.621,13.189,5.621,19.195v0.755h0.711
		c2.726,5.331,6.277,10.284,10.614,14.681c11.017,11.169,25.58,17.319,41.008,17.319h93c15.428,0,29.991-6.15,41.008-17.319
		c10.096-10.234,15.999-23.456,16.867-37.554c9.559-5.328,22.329-13.223,35.192-23.509c34.192-27.341,52.182-58.501,52.182-90.11
		C296.967,83.855,271.146,58.116,239.51,58.116z M192.362,235.984H18.073c-0.883-3.371-1.688-6.892-1.688-10.5v-5.5h177v5.5
		C193.384,229.092,193.245,232.612,192.362,235.984z M16.384,60.984h177v16h-177V60.984z M193.384,203.984h-177v-16h177V203.984z
		 M193.384,171.984h-177v-15h177V171.984z M193.384,124.984v16h-177v-16H193.384z M16.384,92.984h177v16h-177V92.984z
		 M193.384,44.984h-177v-16h177V44.984z M184.264,251.984c-7.774,9.686-19.585,16-32.547,16h-93c-12.962,0-24.772-6.314-32.547-16
		H184.264z M209.384,210.466V87.002c8-7.929,18.345-12.886,30.126-12.886c22.814,0,41.291,18.561,41.291,41.375
		C280.801,160.076,237.384,193.632,209.384,210.466z"/>
	<rect x="16.384" y="28.984" style="fill:#78A0B4;" width="177" height="16"/>
	<rect x="16.384" y="124.984" style="fill:#FFFFFF;" width="177" height="16"/>
	<rect x="16.384" y="60.984" style="fill:#FFB929;" width="177" height="16"/>
	<path style="fill:#CC7B05;" d="M0.286,96.778c-0.623,2.264,0.099,4.379,0.099,6.273v-6.58C0.384,96.574,0.315,96.674,0.286,96.778z
		"/>
	<rect x="16.384" y="92.984" style="fill:#CC7B05;" width="177" height="16"/>
	<rect x="16.384" y="156.984" style="fill:#78A0B4;" width="177" height="15"/>
	<rect x="16.384" y="187.984" style="fill:#FFB929;" width="177" height="16"/>
	<path style="fill:#CC7B05;" d="M0.384,224.472c0,0.102,0.097,0.202,0.068,0.307c-0.732,2.663-0.557,5.122,0.394,7.255
		c-0.242-2.163-0.462-4.347-0.462-6.55V224.472z"/>
	<path style="fill:#CC7B05;" d="M16.384,219.984v5.5c0,3.608,0.806,7.129,1.688,10.5h174.289c0.883-3.371,1.022-6.892,1.022-10.5
		v-5.5H16.384z"/>
	<path style="fill:#FFFFFF;" d="M58.717,267.984h93c12.962,0,24.772-6.314,32.547-16H26.17
		C33.945,261.669,45.755,267.984,58.717,267.984z"/>
</g>
<g>
</g>
<g>
</g>
<g>
</g>
<g>
</g>
<g>
</g>
<g>
</g>
<g>
</g>
<g>
</g>
<g>
</g>
<g>
</g>
<g>
</g>
<g>
</g>
<g>
</g>
<g>
</g>
<g>
</g>
</svg>
