<?xml version="1.0" encoding="iso-8859-1"?>
<!-- Generator: Adobe Illustrator 18.0.0, SVG Export Plug-In . SVG Version: 6.00 Build 0)  -->
<!DOCTYPE svg PUBLIC "-//W3C//DTD SVG 1.1//EN" "http://www.w3.org/Graphics/SVG/1.1/DTD/svg11.dtd">
<svg version="1.1" id="Capa_1" xmlns="http://www.w3.org/2000/svg" xmlns:xlink="http://www.w3.org/1999/xlink" x="0px" y="0px"
	 viewBox="0 0 414.831 414.831" style="enable-background:new 0 0 414.831 414.831;" xml:space="preserve">
<path d="M414.787,188.137c0-73.562-57.996-133.832-130.666-137.489V0H0.044v389.821H14.33v25.009h255.506v-25.009h14.285v-64.195
	C356.79,321.969,414.787,261.699,414.787,188.137z M284.121,104.591c42.975,3.571,76.861,39.665,76.861,83.547
	s-33.886,79.975-76.861,83.547V104.591z M255.836,400.831H28.33v-11.009h227.506V400.831z M270.121,375.821H14.044V14h83.5v90.042
	h-39.5l-14,14v123l14,14h93l14-14v-123l-14-14h-39.5V14h158.577V375.821z M111.544,118.042h39.5v123h-93v-123h39.5H111.544z
	 M284.121,311.601v-25.855c50.706-3.601,90.861-46.001,90.861-97.608s-40.155-94.007-90.861-97.608V64.674
	c64.945,3.642,116.666,57.623,116.666,123.463S349.066,307.959,284.121,311.601z"/>
<g>
</g>
<g>
</g>
<g>
</g>
<g>
</g>
<g>
</g>
<g>
</g>
<g>
</g>
<g>
</g>
<g>
</g>
<g>
</g>
<g>
</g>
<g>
</g>
<g>
</g>
<g>
</g>
<g>
</g>
</svg>
